HIERARCHY
ROOT Model
{
	OFFSET 0 0 0
	CHANNELS 6 Xposition Yposition Zposition Zrotation Xrotation Yrotation
	JOINT Model1
	{
		OFFSET 0 -2.25479 2.99384
		CHANNELS 3 Zrotation Xrotation Yrotation
		JOINT Model2
		{
			OFFSET 12.111 0 0
			CHANNELS 3 Zrotation Xrotation Yrotation
			JOINT Model3
			{
				OFFSET 11.5502 0 0
				CHANNELS 3 Zrotation Xrotation Yrotation
				JOINT Model4
				{
					OFFSET 11.781 0 0
					CHANNELS 3 Zrotation Xrotation Yrotation
					JOINT Model5
					{
						OFFSET 20.0601 0 0
						CHANNELS 3 Zrotation Xrotation Yrotation
						JOINT Model6
						{
							OFFSET 11.1962 0 0
							CHANNELS 3 Zrotation Xrotation Yrotation
							End Site
							{
								OFFSET 0 0 0
							}
						}
					}
					JOINT Model7
					{
						OFFSET 10.8223 0.417534 3.51114
						CHANNELS 3 Zrotation Xrotation Yrotation
						JOINT Model8
						{
							OFFSET -6.07944 0 0
							CHANNELS 3 Zrotation Xrotation Yrotation
							JOINT Model9
							{
								OFFSET -0.277405 10.39 -0.051239
								CHANNELS 3 Zrotation Xrotation Yrotation
								JOINT Model10
								{
									OFFSET -3.43909 -0.282043 1.86679
									CHANNELS 3 Zrotation Xrotation Yrotation
									JOINT Model11
									{
										OFFSET 13.0269 0 0
										CHANNELS 3 Zrotation Xrotation Yrotation
										JOINT Model12
										{
											OFFSET 10.8866 0 0
											CHANNELS 3 Zrotation Xrotation Yrotation
											JOINT Model13
											{
												OFFSET 16.7317 0 0
												CHANNELS 3 Zrotation Xrotation Yrotation
												JOINT Model14
												{
													OFFSET 11.8292 0 0
													CHANNELS 3 Zrotation Xrotation Yrotation
													JOINT Model15
													{
														OFFSET 4.82751 -3.73566 -0.836517
														CHANNELS 3 Zrotation Xrotation Yrotation
														JOINT Model16
														{
															OFFSET 3.75311 -0.0582886 -0.0186462
															CHANNELS 3 Zrotation Xrotation Yrotation
															JOINT Model17
															{
																OFFSET 2.88689 0.0192337 0.014801
																CHANNELS 3 Zrotation Xrotation Yrotation
																End Site
																{
																	OFFSET 0 0 0
																}
															}
														}
													}
													JOINT Model18
													{
														OFFSET 9.72197 -3.06458 0.23877
														CHANNELS 3 Zrotation Xrotation Yrotation
														JOINT Model19
														{
															OFFSET 4.61131 0 0
															CHANNELS 3 Zrotation Xrotation Yrotation
															JOINT Model20
															{
																OFFSET 2.8969 -7.62939e-006 0
																CHANNELS 3 Zrotation Xrotation Yrotation
																End Site
																{
																	OFFSET 0 0 0
																}
															}
														}
													}
													JOINT Model21
													{
														OFFSET 9.54431 -0.745064 0.588928
														CHANNELS 3 Zrotation Xrotation Yrotation
														JOINT Model22
														{
															OFFSET 5.33978 0 0
															CHANNELS 3 Zrotation Xrotation Yrotation
															JOINT Model23
															{
																OFFSET 3.03619 7.62939e-006 0
																CHANNELS 3 Zrotation Xrotation Yrotation
																End Site
																{
																	OFFSET 0 0 0
																}
															}
														}
													}
													JOINT Model24
													{
														OFFSET 9.47758 1.51286 0.485107
														CHANNELS 3 Zrotation Xrotation Yrotation
														JOINT Model25
														{
															OFFSET 4.96136 7.62939e-006 0
															CHANNELS 3 Zrotation Xrotation Yrotation
															JOINT Model26
															{
																OFFSET 2.51965 0 0
																CHANNELS 3 Zrotation Xrotation Yrotation
																End Site
																{
																	OFFSET 0 0 0
																}
															}
														}
													}
													JOINT Model27
													{
														OFFSET 9.34247 3.34117 -0.239288
														CHANNELS 3 Zrotation Xrotation Yrotation
														JOINT Model28
														{
															OFFSET 3.28259 2.28882e-005 0
															CHANNELS 3 Zrotation Xrotation Yrotation
															JOINT Model29
															{
																OFFSET 2.1292 0 0
																CHANNELS 3 Zrotation Xrotation Yrotation
																End Site
																{
																	OFFSET 0 0 0
																}
															}
														}
													}
												}
											}
										}
									}
								}
							}
						}
					}
					JOINT Model30
					{
						OFFSET 10.8223 0.4179 -3.51108
						CHANNELS 3 Zrotation Xrotation Yrotation
						JOINT Model31
						{
							OFFSET 6.07944 0 0
							CHANNELS 3 Zrotation Xrotation Yrotation
							JOINT Model32
							{
								OFFSET 0.277405 -10.39 0.051239
								CHANNELS 3 Zrotation Xrotation Yrotation
								JOINT Model33
								{
									OFFSET 3.43909 0.282043 -1.86679
									CHANNELS 3 Zrotation Xrotation Yrotation
									JOINT Model34
									{
										OFFSET -13.0269 0 0
										CHANNELS 3 Zrotation Xrotation Yrotation
										JOINT Model35
										{
											OFFSET -10.8866 0 0
											CHANNELS 3 Zrotation Xrotation Yrotation
											JOINT Model36
											{
												OFFSET -16.7317 0 0
												CHANNELS 3 Zrotation Xrotation Yrotation
												JOINT Model37
												{
													OFFSET -11.8292 0 0
													CHANNELS 3 Zrotation Xrotation Yrotation
													JOINT Model38
													{
														OFFSET -4.82751 3.73566 0.836517
														CHANNELS 3 Zrotation Xrotation Yrotation
														JOINT Model39
														{
															OFFSET -3.75311 0.0582886 0.0186462
															CHANNELS 3 Zrotation Xrotation Yrotation
															JOINT Model40
															{
																OFFSET -2.88687 -0.0192337 -0.014801
																CHANNELS 3 Zrotation Xrotation Yrotation
																End Site
																{
																	OFFSET 0 0 0
																}
															}
														}
													}
													JOINT Model41
													{
														OFFSET -9.72198 3.06459 -0.23877
														CHANNELS 3 Zrotation Xrotation Yrotation
														JOINT Model42
														{
															OFFSET -4.6113 0 0
															CHANNELS 3 Zrotation Xrotation Yrotation
															JOINT Model43
															{
																OFFSET -2.89691 0 0
																CHANNELS 3 Zrotation Xrotation Yrotation
																End Site
																{
																	OFFSET 0 0 0
																}
															}
														}
													}
													JOINT Model44
													{
														OFFSET -9.54431 0.745064 -0.588928
														CHANNELS 3 Zrotation Xrotation Yrotation
														JOINT Model45
														{
															OFFSET -5.33978 0 0
															CHANNELS 3 Zrotation Xrotation Yrotation
															JOINT Model46
															{
																OFFSET -3.03619 -1.52588e-005 0
																CHANNELS 3 Zrotation Xrotation Yrotation
																End Site
																{
																	OFFSET 0 0 0
																}
															}
														}
													}
													JOINT Model47
													{
														OFFSET -9.4776 -1.51286 -0.485107
														CHANNELS 3 Zrotation Xrotation Yrotation
														JOINT Model48
														{
															OFFSET -4.96136 -1.52588e-005 0
															CHANNELS 3 Zrotation Xrotation Yrotation
															JOINT Model49
															{
																OFFSET -2.51965 0 0
																CHANNELS 3 Zrotation Xrotation Yrotation
																End Site
																{
																	OFFSET 0 0 0
																}
															}
														}
													}
													JOINT Model50
													{
														OFFSET -9.34247 -3.34118 0.239288
														CHANNELS 3 Zrotation Xrotation Yrotation
														JOINT Model51
														{
															OFFSET -3.28259 -2.28882e-005 0
															CHANNELS 3 Zrotation Xrotation Yrotation
															JOINT Model52
															{
																OFFSET -2.12921 0 0
																CHANNELS 3 Zrotation Xrotation Yrotation
																End Site
																{
																	OFFSET 0 0 0
																}
															}
														}
													}
												}
											}
										}
									}
								}
							}
						}
					}
				}
			}
		}
	}
	JOINT Model53
	{
		OFFSET 4.38025 -2.14632 -1.11517
		CHANNELS 3 Zrotation Xrotation Yrotation
		JOINT Model54
		{
			OFFSET 0 0 4.94998
			CHANNELS 3 Zrotation Xrotation Yrotation
			JOINT Model55
			{
				OFFSET 18.5642 0 0
				CHANNELS 3 Zrotation Xrotation Yrotation
				JOINT Model56
				{
					OFFSET 21.2884 0 0
					CHANNELS 3 Zrotation Xrotation Yrotation
					JOINT Model57
					{
						OFFSET 30.261 0 0
						CHANNELS 3 Zrotation Xrotation Yrotation
						JOINT Model58
						{
							OFFSET 11.7259 0 0
							CHANNELS 3 Zrotation Xrotation Yrotation
							JOINT Model59
							{
								OFFSET 10.682 0 0
								CHANNELS 3 Zrotation Xrotation Yrotation
								End Site
								{
									OFFSET 0 0 0
								}
							}
						}
					}
				}
			}
		}
	}
	JOINT Model60
	{
		OFFSET -4.38025 -2.14632 -1.11517
		CHANNELS 3 Zrotation Xrotation Yrotation
		JOINT Model61
		{
			OFFSET 0 0 -4.94998
			CHANNELS 3 Zrotation Xrotation Yrotation
			JOINT Model62
			{
				OFFSET -18.5642 0 0
				CHANNELS 3 Zrotation Xrotation Yrotation
				JOINT Model63
				{
					OFFSET -21.2884 0 0
					CHANNELS 3 Zrotation Xrotation Yrotation
					JOINT Model64
					{
						OFFSET -30.261 0 0
						CHANNELS 3 Zrotation Xrotation Yrotation
						JOINT Model65
						{
							OFFSET -11.7259 0 0
							CHANNELS 3 Zrotation Xrotation Yrotation
							JOINT Model66
							{
								OFFSET -10.682 0 0
								CHANNELS 3 Zrotation Xrotation Yrotation
								End Site
								{
									OFFSET 0 0 0
								}
							}
						}
					}
				}
			}
		}
	}
}
MOTION
Frames: 4
Frame Time: 0.033333
-672.607 173.962 -741.643 88.9238 -51.122 89.4226 -180 4.29621e-031 -90 0.41599 -0.0427399 -0.460945 0.831614 -0.089261 -0.921569 0.831614 -0.0888239 -0.921575 2.30555 0.584424 3.86539 10.9756 1.30324 -1.33274 120.092 75.5343 58.4939 1.08175 0.79204 0.365368 -167.277 84.4999 48.8109 168.61 -5.3951 -10.2729 2.39749e-006 17.468 3.1811e-005 -0.137066 -4.215 -1.62941 -4.03237e-007 -6.26128 -7.27335e-007 -0.559498 0.00811238 -1.66133 -72.0648 39.0385 39.3397 33.3638 2.10362 14.835 0.588947 0.308273 6.35287 -99.6409 81.413 100.35 -0.0181409 2.779e-005 -0.117315 -0.124139 0.00241113 -0.799296 -79.8382 79.5773 80.5374 -0.000225786 -0.000220911 2.21857e-005 -0.000956239 0.00012291 -2.73326e-005 -66.7416 80.4058 67.2171 -0.000437142 1.59567e-005 -2.73292e-005 -0.000136617 -0.000109276 -5.4653e-005 -6.42159 81.2158 8.01779 -0.000218578 1.69129e-005 0.000212132 0.000901568 -0.000184795 -0.000218578 -59.9282 75.5373 58.5147 -2.98649 -1.0627 0.469512 -167.277 84.4999 48.8109 160.417 -15.0245 -4.18124 6.98315e-006 -0.0786148 2.915e-005 -1.66913 6.70642 -0.0672123 -3.9231e-006 10.085 1.57013e-006 -2.32651 0.0708647 -3.48889 -72.0648 39.0385 39.3397 33.3638 2.10361 14.835 0.588946 0.308273 6.35287 -99.6409 81.413 100.35 -0.0181409 3.00756e-005 -0.117315 -0.124139 0.00241113 -0.799296 -79.8382 79.5773 80.5374 -0.00026065 -0.000218568 2.35731e-005 -0.000956231 0.000122993 -2.73171e-005 -66.7416 80.4058 67.2171 -0.000437136 1.48787e-005 -2.73178e-005 -0.000136609 -0.000109287 -5.46375e-005 -6.42159 81.2158 8.01779 -0.00021857 1.95749e-005 0.0002123 0.000901577 -0.000191251 -0.000218561 0.000811311 0.56661 89.91 -18.451 -2.75955 -7.5965 1.28046e-007 0.344359 2.06575e-010 38.0678 -2.73558 -0.951371 -1.24849e-007 -4.17576 -1.23394e-007 -69.5536 -5.64662 1.9712 -35.4947 5.76775e-007 -3.26825e-008 -180 -0.566579 -90.09 -15.8866 -4.22832 -7.92635 -4.73166e-007 -1.36315 -1.2432e-008 36.4567 -3.70808 -2.02692 2.46773e-007 -5.63472 -3.5602e-007 -69.623 -7.62272 2.99344 -35.4947 2.01233e-007 5.82396e-008 
-672.614 173.965 -741.646 88.9375 -51.1028 89.432 -180 4.29621e-031 -90 0.414856 -0.0426368 -0.463274 0.829345 -0.0891269 -0.926227 0.829345 -0.0886898 -0.926233 2.29889 0.559568 3.86893 11.0083 1.28005 -1.30665 120.092 75.5343 58.4939 1.26591 0.868829 0.355471 -167.277 84.4999 48.8109 168.656 -5.52052 -10.457 2.46915e-006 17.3448 3.17895e-005 -0.132479 -4.19751 -1.58063 -4.029e-007 -6.23487 -7.27298e-007 -0.565207 0.00859225 -1.74182 -72.0648 39.0385 39.3397 33.3638 2.10362 14.835 0.588947 0.308273 6.35287 -99.6409 81.413 100.35 -0.0181409 2.779e-005 -0.117315 -0.124139 0.00241113 -0.799296 -79.8382 79.5773 80.5374 -0.000225786 -0.000220911 2.21857e-005 -0.000956239 0.00012291 -2.73326e-005 -66.7416 80.4058 67.2171 -0.000437142 1.59567e-005 -2.73292e-005 -0.000136617 -0.000109276 -5.4653e-005 -6.42159 81.2158 8.01779 -0.000218578 1.69129e-005 0.000212132 0.000901568 -0.000184795 -0.000218578 -59.9282 75.5373 58.5147 -2.92833 -1.11078 0.443636 -167.277 84.4999 48.8109 160.285 -15.045 -4.4595 6.98418e-006 -0.080645 2.915e-005 -1.67293 6.60627 -0.0658056 -3.91892e-006 9.93465 1.56941e-006 -2.31114 0.0702211 -3.4802 -72.0648 39.0385 39.3397 33.3638 2.10361 14.835 0.588946 0.308273 6.35287 -99.6409 81.413 100.35 -0.0181409 3.00756e-005 -0.117315 -0.124139 0.00241113 -0.799296 -79.8382 79.5773 80.5374 -0.00026065 -0.000218568 2.35731e-005 -0.000956231 0.000122993 -2.73171e-005 -66.7416 80.4058 67.2171 -0.000437136 1.48787e-005 -2.73178e-005 -0.000136609 -0.000109287 -5.46375e-005 -6.42159 81.2158 8.01779 -0.00021857 1.95749e-005 0.0002123 0.000901577 -0.000191251 -0.000218561 0.000811311 0.56661 89.91 -18.4417 -2.74346 -7.57648 1.28046e-007 0.357967 2.06575e-010 38.0524 -2.74417 -0.968706 -1.24877e-007 -4.18865 -1.23396e-007 -69.5371 -5.65793 1.97869 -35.4947 5.87155e-007 -3.23315e-006 -180 -0.566579 -90.09 -15.8706 -4.21704 -7.90987 -4.73165e-007 -1.35446 -1.2432e-008 36.4446 -3.72576 -2.03762 2.46608e-007 -5.66127 -3.56036e-007 -69.6121 -7.63454 3.00088 -35.4947 2.00903e-007 5.10001e-008 
-672.635 173.973 -741.653 88.9759 -51.0486 89.4584 -180 4.29621e-031 -90 0.411644 -0.0424962 -0.469856 0.822917 -0.0888027 -0.939395 0.822917 -0.0883656 -0.939401 2.28004 0.489409 3.87886 11.1008 1.21464 -1.23307 120.092 75.5343 58.4939 1.78807 1.08479 0.325626 -167.277 84.4999 48.8109 168.781 -5.87503 -10.9755 2.67118e-006 16.9966 3.17299e-005 -0.119564 -4.14827 -1.44134 -4.0195e-007 -6.16052 -7.27195e-007 -0.58166 0.00998997 -1.96784 -72.0648 39.0385 39.3397 33.3638 2.10362 14.835 0.588947 0.308273 6.35287 -99.6409 81.413 100.35 -0.0181409 2.779e-005 -0.117315 -0.124139 0.00241113 -0.799296 -79.8382 79.5773 80.5374 -0.000225786 -0.000220911 2.21857e-005 -0.000956239 0.00012291 -2.73326e-005 -66.7416 80.4058 67.2171 -0.000437142 1.59567e-005 -2.73292e-005 -0.000136617 -0.000109276 -5.4653e-005 -6.42159 81.2158 8.01779 -0.000218578 1.69129e-005 0.000212132 0.000901568 -0.000184795 -0.000218578 -59.9282 75.5373 58.5147 -2.76361 -1.24713 0.370586 -167.277 84.4999 48.8109 159.909 -15.0994 -5.24675 6.9871e-006 -0.0863692 2.915e-005 -1.6837 6.32264 -0.0619101 -3.9071e-006 9.50898 1.56741e-006 -2.26656 0.0682995 -3.45157 -72.0648 39.0385 39.3397 33.3638 2.10361 14.835 0.588946 0.308273 6.35287 -99.6409 81.413 100.35 -0.0181409 3.00756e-005 -0.117315 -0.124139 0.00241113 -0.799296 -79.8382 79.5773 80.5374 -0.00026065 -0.000218568 2.35731e-005 -0.000956231 0.000122993 -2.73171e-005 -66.7416 80.4058 67.2171 -0.000437136 1.48787e-005 -2.73178e-005 -0.000136609 -0.000109287 -5.46375e-005 -6.42159 81.2158 8.01779 -0.00021857 1.95749e-005 0.0002123 0.000901577 -0.000191251 -0.000218561 0.000811311 0.56661 89.91 -18.4151 -2.69807 -7.51992 1.28046e-007 0.396279 2.06576e-010 38.0088 -2.76835 -1.01778 -1.24956e-007 -4.22491 -1.23401e-007 -69.4905 -5.6898 1.99983 -35.4947 6.07686e-007 -1.25001e-005 -180 -0.566579 -90.09 -15.8254 -4.18512 -7.86324 -4.73159e-007 -1.32994 -1.24319e-008 36.4101 -3.77583 -2.06809 2.46138e-007 -5.73647 -3.56083e-007 -69.5812 -7.66806 3.02202 -35.4947 2.0619e-007 4.21015e-008 
-672.667 173.985 -741.663 89.0355 -50.9642 89.4993 -180 4.29621e-031 -90 0.406668 -0.0422248 -0.480133 0.812959 -0.0882918 -0.959955 0.812959 -0.0878547 -0.959961 2.25111 0.380264 3.89557 11.2447 1.11333 -1.12066 120.092 75.5343 58.4939 2.6062 1.41914 0.273972 -167.277 84.4999 48.8109 168.966 -6.42607 -11.774 2.98391e-006 16.455 3.16399e-005 -0.099752 -4.07281 -1.22192 -4.00497e-007 -6.04667 -7.27041e-007 -0.607052 0.0122573 -2.3134 -72.0648 39.0385 39.3397 33.3638 2.10362 14.835 0.588947 0.308273 6.35287 -99.6409 81.413 100.35 -0.0181409 2.779e-005 -0.117315 -0.124139 0.00241113 -0.799296 -79.8382 79.5773 80.5374 -0.000225786 -0.000220911 2.21857e-005 -0.000956239 0.00012291 -2.73326e-005 -66.7416 80.4058 67.2171 -0.000437142 1.59567e-005 -2.73292e-005 -0.000136617 -0.000109276 -5.4653e-005 -6.42159 81.2158 8.01779 -0.000218578 1.69129e-005 0.000212132 0.000901568 -0.000184795 -0.000218578 -59.9282 75.5373 58.5147 -2.50679 -1.46082 0.257184 -167.277 84.4999 48.8109 159.318 -15.1733 -6.4719 6.9916e-006 -0.095224 2.915e-005 -1.70046 5.88065 -0.0561 -3.88873e-006 8.84562 1.56448e-006 -2.19381 0.06503 -3.3954 -72.0648 39.0385 39.3397 33.3638 2.10361 14.835 0.588946 0.308273 6.35287 -99.6409 81.413 100.35 -0.0181409 3.00756e-005 -0.117315 -0.124139 0.00241113 -0.799296 -79.8382 79.5773 80.5374 -0.00026065 -0.000218568 2.35731e-005 -0.000956231 0.000122993 -2.73171e-005 -66.7416 80.4058 67.2171 -0.000437136 1.48787e-005 -2.73178e-005 -0.000136609 -0.000109287 -5.46375e-005 -6.42159 81.2158 8.01779 -0.00021857 1.95749e-005 0.0002123 0.000901577 -0.000191251 -0.000218561 0.000811311 0.56661 89.91 -18.3736 -2.62725 -7.43177 1.28046e-007 0.456041 2.06578e-010 37.9408 -2.80606 -1.09443 -1.25078e-007 -4.28147 -1.2341e-007 -69.4179 -5.73948 2.03286 -35.4947 6.37445e-007 -2.72981e-005 -180 -0.566579 -90.09 -15.7551 -4.13552 -7.79076 -4.73151e-007 -1.29197 -1.24317e-008 36.3564 -3.85364 -2.1157 2.45408e-007 -5.85336 -3.56156e-007 -69.5329 -7.72009 3.05491 -35.4947 2.1669e-007 3.16624e-008 
